<svg width="153" height="39" viewBox="0 0 153 39" fill="none" xmlns="http://www.w3.org/2000/svg">
<ellipse cx="4.50346" cy="3.5" rx="3.50969" ry="3.5" fill="white"/>
<path d="M81.4903 37.958L81.5084 36.9581L81.4903 37.958ZM152.412 22.4771L141.023 24.3798L148.365 33.2918L152.412 22.4771ZM3.17416 4.56085C3.80149 5.48691 4.55134 6.48332 5.42217 7.53243L6.96109 6.25504C6.12662 5.24973 5.41667 4.3052 4.82999 3.43915L3.17416 4.56085ZM10.5285 12.9042C12.1919 14.4596 14.0687 16.0631 16.1586 17.6742L17.3797 16.0903C15.3392 14.5172 13.5108 12.9547 11.8945 11.4434L10.5285 12.9042ZM22.1768 21.9221C24.1525 23.1993 26.2652 24.4588 28.5148 25.6798L29.4688 23.922C27.2647 22.7257 25.1959 21.4922 23.2626 20.2425L22.1768 21.9221ZM35.0953 28.9467C37.2624 29.9272 39.5321 30.8643 41.9042 31.7444L42.5999 29.8693C40.2718 29.0055 38.0451 28.0861 35.9197 27.1245L35.0953 28.9467ZM48.8751 34.0672C51.1627 34.7458 53.5317 35.3689 55.9818 35.9269L56.4259 33.9768C54.018 33.4285 51.6906 32.8163 49.4439 32.1498L48.8751 34.0672ZM63.1916 37.3336C65.5522 37.7191 67.9793 38.0436 70.4728 38.2998L70.6772 36.3103C68.2232 36.0581 65.8355 35.7389 63.514 35.3598L63.1916 37.3336ZM77.7989 38.8411C79.0092 38.8962 80.2336 38.9354 81.4722 38.9578L81.5084 36.9581C80.2881 36.936 79.0819 36.8975 77.8899 36.8431L77.7989 38.8411ZM81.4722 38.9578C82.7287 38.9805 83.967 38.9939 85.1874 38.9984L85.1946 36.9984C83.984 36.994 82.7553 36.9807 81.5084 36.9581L81.4722 38.9578ZM92.6128 38.9118C95.1726 38.8416 97.6441 38.7305 100.029 38.583L99.9054 36.5868C97.5439 36.7329 95.0953 36.8429 92.558 36.9126L92.6128 38.9118ZM107.426 37.9855C110.006 37.7262 112.469 37.423 114.818 37.0829L114.531 35.1035C112.212 35.4394 109.777 35.7391 107.226 35.9955L107.426 37.9855ZM122.139 35.8387C124.73 35.3295 127.151 34.7756 129.407 34.1897L128.905 32.2539C126.688 32.8294 124.306 33.3745 121.754 33.8763L122.139 35.8387ZM136.567 32.0549C139.192 31.1598 141.51 30.2311 143.533 29.3033L142.7 27.4854C140.743 28.3829 138.488 29.287 135.922 30.1619L136.567 32.0549Z" fill="white"/>
</svg>
